<?xml version="1.0" encoding="utf-8"?>
<!-- Generator: Adobe Illustrator 15.1.0, SVG Export Plug-In . SVG Version: 6.00 Build 0)  -->
<!DOCTYPE svg PUBLIC "-//W3C//DTD SVG 1.1//EN" "http://www.w3.org/Graphics/SVG/1.1/DTD/svg11.dtd">
<svg version="1.1" id="Layer_1" xmlns="http://www.w3.org/2000/svg" xmlns:xlink="http://www.w3.org/1999/xlink" x="0px" y="0px"
	 width="250px" height="250px" viewBox="0 0 250 250" enable-background="new 0 0 250 250" xml:space="preserve">
<g>
	<path fill="#1D71B8" d="M122.943,150.826"/>
	<path fill="#1D71B8" d="M119.025,5.593c62.719,0,113.565,50.11,113.565,111.915c0,61.81-50.847,111.917-113.565,111.917
		c-62.718,0-113.563-50.107-113.563-111.917C5.462,55.703,56.307,5.593,119.025,5.593z"/>
	<g>
		<path fill="#FFFFFF" stroke="#000000" stroke-width="0.25" stroke-miterlimit="10" d="M51.665,182.658
			c-0.03-4.305-0.054-8.597-0.087-12.878c-0.03-4.493,3.823-8.212,8.519-8.252l21.338-0.16l0.08,12.865
			c0.038,4.49-3.82,8.213-8.519,8.245C65.892,182.538,58.775,182.591,51.665,182.658"/>
		<path fill="#FFFFFF" stroke="#000000" stroke-width="0.25" stroke-miterlimit="10" d="M67.768,141.048l-7.808,0.061
			c-9.045,0.072-16.396,7.191-16.343,15.806l0.087,12.927c-0.057-8.622,7.29-15.733,16.345-15.806l21.379-0.172l-0.141-20.368
			c-0.065-8.624,7.297-15.737,16.339-15.808L84.057,117.8c-9.051,0.07-16.402,7.178-16.341,15.799L67.768,141.048z"/>
		<path fill="#FFFFFF" stroke="#000000" stroke-width="0.25" stroke-miterlimit="10" d="M102.962,174.062
			c0.06,8.626-7.3,15.733-16.344,15.813l-13.568,0.108c9.046-0.084,16.403-7.192,16.346-15.813
			c-0.096-13.574-0.191-27.162-0.282-40.739c-0.061-8.614,7.29-15.735,16.337-15.808l13.568-0.112
			c-9.04,0.076-16.399,7.185-16.338,15.799C102.777,146.899,102.872,160.484,102.962,174.062"/>
		<path fill="#FFFFFF" stroke="#000000" stroke-width="0.25" stroke-miterlimit="10" d="M186.38,52.368
			c0.033,4.294,0.053,8.583,0.091,12.88c0.041,4.474-3.814,8.206-8.52,8.244l-21.341,0.165l-0.081-12.868
			c-0.041-4.484,3.819-8.208,8.526-8.244C172.157,52.484,179.269,52.428,186.38,52.368"/>
		<path fill="#FFFFFF" stroke="#000000" stroke-width="0.25" stroke-miterlimit="10" d="M170.281,93.978l7.806-0.06
			c9.048-0.075,16.401-7.184,16.341-15.8l-0.094-12.93c0.061,8.615-7.292,15.727-16.333,15.805l-21.395,0.171l0.143,20.377
			c0.063,8.617-7.292,15.728-16.337,15.808l13.567-0.109c9.05-0.073,16.405-7.195,16.346-15.811L170.281,93.978z"/>
		<path fill="#FFFFFF" stroke="#000000" stroke-width="0.25" stroke-miterlimit="10" d="M135.089,60.96
			c-0.063-8.618,7.289-15.724,16.331-15.806l13.578-0.104c-9.047,0.07-16.401,7.188-16.344,15.804
			c0.1,13.581,0.185,27.164,0.275,40.745c0.066,8.611-7.296,15.731-16.333,15.81l-13.571,0.106
			c9.047-0.07,16.404-7.182,16.345-15.808C135.27,88.128,135.179,74.542,135.089,60.96"/>
		<path fill="#FFFFFF" stroke="#000000" stroke-width="0.25" stroke-miterlimit="10" d="M50.785,53.458
			c4.505-0.038,9.006-0.07,13.512-0.106c4.702-0.046,8.6,3.616,8.636,8.103l0.143,20.328l-13.511,0.106
			c-4.707,0.037-8.608-3.624-8.638-8.106C50.877,67.011,50.83,60.237,50.785,53.458"/>
		<path fill="#FFFFFF" stroke="#000000" stroke-width="0.25" stroke-miterlimit="10" d="M94.421,68.727l-0.047-7.452
			c-0.06-8.618-7.515-15.607-16.556-15.539L64.25,45.844c9.042-0.07,16.493,6.927,16.551,15.546l0.14,20.376l21.386-0.177
			c9.043-0.068,16.5,6.92,16.556,15.544l-0.091-12.928c-0.063-8.626-7.509-15.613-16.561-15.531L94.421,68.727z"/>
		<path fill="#FFFFFF" stroke="#000000" stroke-width="0.25" stroke-miterlimit="10" d="M59.705,102.315
			c-9.049,0.076-16.5-6.915-16.557-15.54l-0.087-12.934c0.055,8.623,7.506,15.613,16.559,15.539
			c14.25-0.115,28.508-0.227,42.77-0.347c9.04-0.067,16.484,6.924,16.553,15.549l0.092,12.928
			c-0.059-8.622-7.512-15.613-16.557-15.545C88.212,102.088,73.957,102.209,59.705,102.315"/>
		<path fill="#FFFFFF" stroke="#000000" stroke-width="0.25" stroke-miterlimit="10" d="M187.256,181.562
			c-4.497,0.041-8.992,0.064-13.496,0.109c-4.712,0.044-8.606-3.627-8.638-8.104l-0.144-20.319l13.517-0.113
			c4.698-0.032,8.599,3.623,8.631,8.104C187.167,168.01,187.22,174.788,187.256,181.562"/>
		<path fill="#FFFFFF" stroke="#000000" stroke-width="0.25" stroke-miterlimit="10" d="M143.623,166.299l0.05,7.449
			c0.058,8.622,7.514,15.604,16.558,15.524l13.574-0.112c-9.047,0.085-16.498-6.914-16.562-15.54l-0.136-20.372l-21.386,0.177
			c-9.041,0.08-16.496-6.911-16.548-15.541l0.087,12.927c0.059,8.633,7.505,15.629,16.556,15.549L143.623,166.299z"/>
		<path fill="#FFFFFF" stroke="#000000" stroke-width="0.25" stroke-miterlimit="10" d="M178.352,132.712
			c9.042-0.081,16.492,6.918,16.547,15.549l0.091,12.918c-0.061-8.626-7.514-15.613-16.552-15.541
			c-14.257,0.109-28.511,0.229-42.766,0.342c-9.051,0.088-16.496-6.915-16.563-15.538l-0.084-12.931
			c0.065,8.62,7.516,15.619,16.555,15.546C149.836,132.94,164.091,132.828,178.352,132.712"/>
	</g>
	<path fill="none" d="M198.321,199.897c-32.175,41.679-91.996,44.782-133.623,7C23.083,169.093,15.402,104.704,47.569,63.045
		c32.167-41.659,91.992-44.787,133.604-6.996C222.804,93.845,230.48,158.259,198.321,199.897z"/>
	
		<text transform="matrix(0.9363 -0.4385 0.3918 0.9538 74.4326 39.8062)" fill="#FFFFFF" font-family="'MyriadPro-Regular'" font-size="19.9167">S</text>
	
		<text transform="matrix(0.9661 -0.3577 0.3223 0.983 83.4458 35.707)" fill="#FFFFFF" font-family="'MyriadPro-Regular'" font-size="19.9167"> </text>
	
		<text transform="matrix(0.9963 -0.248 0.2277 1.0121 87.1367 34.0083)" fill="#FFFFFF" font-family="'MyriadPro-Regular'" font-size="19.9167">w</text>
	
		<text transform="matrix(1.0157 -0.1382 0.1329 1.0303 101.4653 30.7236)" fill="#FFFFFF" font-family="'MyriadPro-Regular'" font-size="19.9167"> </text>
	
		<text transform="matrix(1.0233 -0.0585 0.064 1.037 105.4922 30.0576)" fill="#FFFFFF" font-family="'MyriadPro-Regular'" font-size="19.9167">a</text>
	
		<text transform="matrix(1.0256 0.0207 -0.0045 1.0382 115.0986 29.6074)" fill="#FFFFFF" font-family="'MyriadPro-Regular'" font-size="19.9167"> </text>
	
		<text transform="matrix(1.0233 0.0892 -0.0638 1.0351 119.23 29.6221)" fill="#FFFFFF" font-family="'MyriadPro-Regular'" font-size="19.9167">s</text>
	
		<text transform="matrix(1.0172 0.1566 -0.1222 1.028 127.0908 30.3623)" fill="#FFFFFF" font-family="'MyriadPro-Regular'" font-size="19.9167"> </text>
	
		<text transform="matrix(1.0086 0.2161 -0.1739 1.0185 131.2344 30.9595)" fill="#FFFFFF" font-family="'MyriadPro-Regular'" font-size="19.9167">t</text>
	
		<text transform="matrix(0.9971 0.2745 -0.2246 1.0061 137.7188 32.3813)" fill="#FFFFFF" font-family="'MyriadPro-Regular'" font-size="19.9167"> </text>
	
		<text transform="matrix(0.9857 0.3213 -0.2652 0.9939 141.7705 33.4868)" fill="#FFFFFF" font-family="'MyriadPro-Regular'" font-size="19.9167">i</text>
	
		<text transform="matrix(0.9723 0.3676 -0.3054 0.9798 146.2295 34.9429)" fill="#FFFFFF" font-family="'MyriadPro-Regular'" font-size="19.9167"> </text>
	
		<text transform="matrix(0.9493 0.4341 -0.3633 0.9556 150.1602 36.3325)" fill="#FFFFFF" font-family="'MyriadPro-Regular'" font-size="19.9167">c</text>
	<rect x="48.205" y="8.98" fill="none" width="15.576" height="6.853"/>
	<path fill="none" d="M112.427,52.536c49.172-6.927,93.526,24.952,99.066,71.21c5.548,46.255-29.827,89.371-79.001,96.294
		c-49.167,6.927-93.524-24.957-99.066-71.21C27.886,102.569,63.26,59.461,112.427,52.536z"/>
	
		<text transform="matrix(0.819 0.3516 -0.4071 0.9233 79.2129 212.0117)" fill="#FFFFFF" font-family="'MyriadPro-Regular'" font-size="18.9886">S</text>
	
		<text transform="matrix(0.8434 0.2907 -0.3402 0.9492 87.4609 215.4336)" fill="#FFFFFF" font-family="'MyriadPro-Regular'" font-size="18.9886"> </text>
	
		<text transform="matrix(0.8645 0.2237 -0.2667 0.9713 91.4341 216.8945)" fill="#FFFFFF" font-family="'MyriadPro-Regular'" font-size="18.9886">o</text>
	
		<text transform="matrix(0.8803 0.1562 -0.1924 0.9875 101.0693 219.248)" fill="#FFFFFF" font-family="'MyriadPro-Regular'" font-size="18.9886"> </text>
	
		<text transform="matrix(0.8872 0.1163 -0.1484 0.9943 104.9688 219.9365)" fill="#FFFFFF" font-family="'MyriadPro-Regular'" font-size="18.9886">l</text>
	
		<text transform="matrix(0.8923 0.0764 -0.1043 0.9991 109.2988 220.4922)" fill="#FFFFFF" font-family="'MyriadPro-Regular'" font-size="18.9886"> </text>
	
		<text transform="matrix(0.8968 0.0085 -0.0294 1.0026 113.4951 220.9355)" fill="#FFFFFF" font-family="'MyriadPro-Regular'" font-size="18.9886">u</text>
	
		<text transform="matrix(0.8963 -0.0585 0.0448 1.0005 123.4888 220.9004)" fill="#FFFFFF" font-family="'MyriadPro-Regular'" font-size="18.9886"> </text>
	
		<text transform="matrix(0.8929 -0.1055 0.0969 0.9958 127.5283 220.6514)" fill="#FFFFFF" font-family="'MyriadPro-Regular'" font-size="18.9886">t</text>
	
		<text transform="matrix(0.8873 -0.1516 0.1479 0.9884 133.5352 219.9053)" fill="#FFFFFF" font-family="'MyriadPro-Regular'" font-size="18.9886"> </text>
	
		<text transform="matrix(0.8807 -0.1897 0.1902 0.9802 137.4619 219.2305)" fill="#FFFFFF" font-family="'MyriadPro-Regular'" font-size="18.9886">i</text>
	
		<text transform="matrix(0.8725 -0.2277 0.2324 0.9702 141.7207 218.3018)" fill="#FFFFFF" font-family="'MyriadPro-Regular'" font-size="18.9886"> </text>
	
		<text transform="matrix(0.8545 -0.2922 0.3041 0.9486 145.8447 217.3125)" fill="#FFFFFF" font-family="'MyriadPro-Regular'" font-size="18.9886">o</text>
	
		<text transform="matrix(0.8314 -0.3558 0.375 0.9214 155.292 213.9434)" fill="#FFFFFF" font-family="'MyriadPro-Regular'" font-size="18.9886"> </text>
	
		<text transform="matrix(0.8031 -0.4182 0.4447 0.8883 159.2422 212.3496)" fill="#FFFFFF" font-family="'MyriadPro-Regular'" font-size="18.9886">n</text>
	
		<text transform="matrix(0.7697 -0.4789 0.5125 0.8497 168.209 207.5254)" fill="#FFFFFF" font-family="'MyriadPro-Regular'" font-size="18.9886"> </text>
	
		<text transform="matrix(0.7396 -0.5254 0.5646 0.815 171.7705 205.3496)" fill="#FFFFFF" font-family="'MyriadPro-Regular'" font-size="18.9886">s</text>
</g>
</svg>
